<svg width="366" height="66" viewBox="0 0 366 66" fill="none" xmlns="http://www.w3.org/2000/svg">
<path fill-rule="evenodd" clip-rule="evenodd" d="M0 32V60H5.5H11V49V38H25H39V32.5V27H25H11V21V15H26H41V9.5V4H20.5H0V32ZM47 8.5V13H53H59V8.5V4H53H47V8.5ZM69 24.05V44.1L74.75 43.8L80.5 43.5L80.771 23.75L81.042 4H75.021H69V24.05ZM116.167 4.775C116.35 5.202 122.125 16.217 129 29.255L141.5 52.959L145.665 52.98L149.83 53L157.165 39.905L164.5 26.811L164.774 43.405L165.048 60H171.024H177V32V4H171.081H165.162L155.739 21.498L146.316 38.995L136.913 21.498L127.511 4H121.672C118.461 4 115.983 4.349 116.167 4.775ZM275.511 22.75C271.802 33.063 267.264 45.662 265.427 50.75L262.086 60H268.46H274.833L282.167 38.002L289.5 16.003L297.388 38.002L305.276 60H311.638C315.137 60 318.01 59.662 318.023 59.25C318.036 58.838 313.232 46.238 307.348 31.25L296.649 4H289.452H282.256L275.511 22.75ZM323 8.923V13.845L336.591 14.173C349.473 14.483 350.281 14.623 352.091 16.861C353.141 18.159 354 20.697 354 22.5C354 24.303 353.141 26.841 352.091 28.139C350.281 30.377 349.473 30.517 336.591 30.827L323 31.155V45.577V60H329H335V50.5V41H343.843C351.146 41 353.444 40.599 357.04 38.697C363.009 35.541 366 29.797 366 21.491C366 13.821 363.454 9.495 357.03 6.25C353.009 4.219 351.138 4 337.788 4H323V8.923ZM116 38.833V60H121.5H127V48.702V37.405L122.041 28.076C119.313 22.946 116.838 18.505 116.541 18.207C116.243 17.91 116 27.192 116 38.833ZM47 40V60H53H59V40V20H53H47V40ZM69 54.5V60H89.5H110V54.5V49H89.5H69V54.5Z" fill="white"/>
<path fill-rule="evenodd" clip-rule="evenodd" d="M202.023 43.5918L182.772 28.6187C181.727 27.8057 181.746 26.2196 182.811 25.4321L216.661 0.392106C217.005 0.137443 217.422 0 217.85 0H240.737C242.152 0 243.119 1.42905 242.594 2.74278L236.242 18.6224C235.915 19.4405 236.162 20.3764 236.85 20.9269L256.18 36.3909C257.199 37.2065 257.176 38.7644 256.134 39.55L222.225 65.0974C221.879 65.3587 221.456 65.5 221.022 65.5H198.093C196.692 65.5 195.725 64.0971 196.224 62.788L202.664 45.8825C202.977 45.061 202.717 44.1315 202.023 43.5918ZM206.8 24.9474L211.53 21.4C212.263 20.8502 213.276 20.8689 213.988 21.4455L231.86 35.9132C232.848 36.7127 232.849 38.2186 231.863 39.0199L227.054 42.927C226.312 43.5299 225.247 43.5233 224.513 42.9112L206.72 28.0838C205.728 27.2574 205.767 25.7219 206.8 24.9474Z" fill="url(#paint0_linear_2_19)"/>
<defs>
<linearGradient id="paint0_linear_2_19" x1="256.93" y1="32.75" x2="182" y2="32.75" gradientUnits="userSpaceOnUse">
<stop stop-color="#C110FE"/>
<stop offset="0.5" stop-color="#2856EE"/>
<stop offset="1" stop-color="#48E586"/>
</linearGradient>
</defs>
</svg>
